# xmcd CD database file
#
# Track frame offsets:
#	150
#	19825
#	38437
#	57002
#	73168
#	89217
#	103244
#	116674
#	135329
#	156443
#
# Disc length: 2389 seconds
#
# Revision: 2
# Processed by: cddbd v1.5.2PL0 Copyright (c) Steve Scherf et al.
# Submitted via: CDex 1.70beta2
#
DISCID=8809530a
DTITLE=何嘉麗 - 何嘉麗
DYEAR=1985
DGENRE=Pop
TTITLE0=傷心酒店
TTITLE1=情為你癡
TTITLE2=又到落葉時
TTITLE3=令我昏迷
TTITLE4=無可奉告
TTITLE5=甜在心裡
TTITLE6=等待
TTITLE7=再見七日情
TTITLE8=曾在心裡
TTITLE9=星下疊影
EXTD=YEAR: 1985
EXTT0=
EXTT1=
EXTT2=
EXTT3=
EXTT4=
EXTT5=
EXTT6=
EXTT7=
EXTT8=
EXTT9=
PLAYORDER=
